<?xml version="1.0" encoding="iso-8859-1"?>
<!-- Generator: Adobe Illustrator 19.0.0, SVG Export Plug-In . SVG Version: 6.00 Build 0)  -->
<svg version="1.1" id="Capa_1" xmlns="http://www.w3.org/2000/svg" xmlns:xlink="http://www.w3.org/1999/xlink" x="0px" y="0px"
	 viewBox="0 0 512 512" style="enable-background:new 0 0 512 512;" xml:space="preserve">
<linearGradient id="SVGID_1_" gradientUnits="userSpaceOnUse" x1="4.928934e-005" y1="258" x2="511.9999" y2="258" gradientTransform="matrix(1 0 0 -1 0 514)">
	<stop  offset="0" style="stop-color:#80D8FF"/>
	<stop  offset="1" style="stop-color:#EA80FC"/>
</linearGradient>
<path style="fill:url(#SVGID_1_);" d="M505.15,360.933L359.759,234.029C383.015,208.476,396,175.281,396,140
	C395.999,62.804,333.196,0,256,0c-77.033,0-139.728,62.539-139.993,139.511c0,0.002,0,0.003,0,0.005s0,0.005,0,0.008
	C116.006,139.683,116,139.841,116,140c0,35.282,12.986,68.479,36.24,94.029L6.849,360.933c-7.523,6.566-9.05,17.676-3.577,26.028
	l76,116C82.967,508.602,89.257,512,96,512h319.999c6.744,0,13.033-3.398,16.729-9.039l76-116
	C514.201,378.608,512.674,367.499,505.15,360.933z M157.934,159.711c31.816-1.196,90.907-6.409,135.155-27.773
	c16.12,16.578,38.206,24.137,61.151,26.836C345.55,204.775,305.096,240,256,240C207.272,240,166.991,205.273,157.934,159.711z
	 M256,40c47.702,0,87.703,33.575,97.629,78.333c-18.603-3.079-31.183-10.419-37.502-21.946c-2.674-4.878-7.259-8.422-12.652-9.781
	c-5.396-1.355-11.11-0.408-15.776,2.62c-36.005,23.376-97.205,29.069-129.611,30.409C167.519,74.227,207.837,40,256,40z
	 M405.193,472H106.807l-60.53-92.389l137.244-119.792c46.035,27.913,102.364,25.975,144.958,0l137.244,119.792L405.193,472z"/>
<g>
</g>
<g>
</g>
<g>
</g>
<g>
</g>
<g>
</g>
<g>
</g>
<g>
</g>
<g>
</g>
<g>
</g>
<g>
</g>
<g>
</g>
<g>
</g>
<g>
</g>
<g>
</g>
<g>
</g>
</svg>
